REM DIRINDEX 1\2,1\3,1\4
REM DIRNAME cjc148,folder01,folder02,folder03
TITLE ""
FILE "St_cl001.mp3" MP3
  TRACK 01 AUDIO
    TITLE "0:"
    INDEX 01 00:00:00
  TRACK 02 AUDIO
    TITLE "0:"
    INDEX 01 00:00:13
  TRACK 03 AUDIO
    TITLE "0:"
    INDEX 01 00:01:21
  TRACK 04 AUDIO
    TITLE "4:cjc148_2585"
    INDEX 01 00:01:69
  TRACK 05 AUDIO
    TITLE "0:"
    INDEX 01 00:03:35
  TRACK 06 AUDIO
    TITLE "4:cjc148_2586"
    INDEX 01 00:04:07
  TRACK 07 AUDIO
    TITLE "0:"
    INDEX 01 00:05:38
  TRACK 08 AUDIO
    TITLE "4:cjc148_2587"
    INDEX 01 00:06:10
  TRACK 09 AUDIO
    TITLE "0:"
    INDEX 01 00:07:66
  TRACK 10 AUDIO
    TITLE "4:cjc148_2588"
    INDEX 01 00:08:32
  TRACK 11 AUDIO
    TITLE "0:"
    INDEX 01 00:09:40
  TRACK 12 AUDIO
    TITLE "4:cjc148_2589"
    INDEX 01 00:10:12
  TRACK 13 AUDIO
    TITLE "0:"
    INDEX 01 00:11:33
  TRACK 14 AUDIO
    TITLE "4:cjc148_2590"
    INDEX 01 00:12:07
  TRACK 15 AUDIO
    TITLE "0:"
    INDEX 01 00:13:53
  TRACK 16 AUDIO
    TITLE "4:cjc148_2591"
    INDEX 01 00:14:27
  TRACK 17 AUDIO
    TITLE "0:"
    INDEX 01 00:15:40
  TRACK 18 AUDIO
    TITLE "4:cjc148_2592"
    INDEX 01 00:16:12
  TRACK 19 AUDIO
    TITLE "0:"
    INDEX 01 00:17:41
  TRACK 20 AUDIO
    TITLE "4:cjc148_2593"
    INDEX 01 00:18:13
  TRACK 21 AUDIO
    TITLE "0:"
    INDEX 01 00:19:36
  TRACK 22 AUDIO
    TITLE "4:cjc148_2594"
    INDEX 01 00:20:08
  TRACK 23 AUDIO
    TITLE "0:"
    INDEX 01 00:21:33
  TRACK 24 AUDIO
    TITLE "4:cjc148_2595"
    INDEX 01 00:22:07
  TRACK 25 AUDIO
    TITLE "0:"
    INDEX 01 00:23:20
  TRACK 26 AUDIO
    TITLE "0:"
    INDEX 01 00:24:69
  TRACK 27 AUDIO
    TITLE "0:"
    INDEX 01 00:26:05
  TRACK 28 AUDIO
    TITLE "4:cjc148_2596"
    INDEX 01 00:26:48
  TRACK 29 AUDIO
    TITLE "0:"
    INDEX 01 00:29:17
  TRACK 30 AUDIO
    TITLE "4:cjc148_2597"
    INDEX 01 00:29:23
  TRACK 31 AUDIO
    TITLE "0:"
    INDEX 01 00:30:52
  TRACK 32 AUDIO
    TITLE "0:"
    INDEX 01 00:32:25
  TRACK 33 AUDIO
    TITLE "0:"
    INDEX 01 00:33:50
  TRACK 34 AUDIO
    TITLE "4:cjc148_2598"
    INDEX 01 00:34:20
  TRACK 35 AUDIO
    TITLE "0:"
    INDEX 01 00:36:15
  TRACK 36 AUDIO
    TITLE "4:cjc148_2599"
    INDEX 01 00:36:19
  TRACK 37 AUDIO
    TITLE "0:"
    INDEX 01 00:37:36
  TRACK 38 AUDIO
    TITLE "4:cjc148_2600"
    INDEX 01 00:38:12
  TRACK 39 AUDIO
    TITLE "0:"
    INDEX 01 00:40:28
  TRACK 40 AUDIO
    TITLE "4:cjc148_2601"
    INDEX 01 00:40:38
  TRACK 41 AUDIO
    TITLE "0:"
    INDEX 01 00:41:67
  TRACK 42 AUDIO
    TITLE "4:cjc148_2602"
    INDEX 01 00:42:57
  TRACK 43 AUDIO
    TITLE "0:"
    INDEX 01 00:44:67
  TRACK 44 AUDIO
    TITLE "4:cjc148_2603"
    INDEX 01 00:45:08
  TRACK 45 AUDIO
    TITLE "0:"
    INDEX 01 00:47:05
  TRACK 46 AUDIO
    TITLE "4:cjc148_2604"
    INDEX 01 00:47:54
  TRACK 47 AUDIO
    TITLE "0:"
    INDEX 01 00:49:39
  TRACK 48 AUDIO
    TITLE "4:cjc148_2605"
    INDEX 01 00:49:43
  TRACK 49 AUDIO
    TITLE "0:"
    INDEX 01 00:50:52
  TRACK 50 AUDIO
    TITLE "0:"
    INDEX 01 00:52:28
  TRACK 51 AUDIO
    TITLE "0:"
    INDEX 01 00:53:47
  TRACK 52 AUDIO
    TITLE "4:cjc148_2606"
    INDEX 01 00:54:23
  TRACK 53 AUDIO
    TITLE "0:"
    INDEX 01 00:55:44
  TRACK 54 AUDIO
    TITLE "4:cjc148_2607"
    INDEX 01 00:56:20
  TRACK 55 AUDIO
    TITLE "0:"
    INDEX 01 00:57:43
  TRACK 56 AUDIO
    TITLE "4:cjc148_2608"
    INDEX 01 00:58:18
  TRACK 57 AUDIO
    TITLE "0:"
    INDEX 01 00:59:32
  TRACK 58 AUDIO
    TITLE "4:cjc148_2609"
    INDEX 01 01:00:08
  TRACK 59 AUDIO
    TITLE "0:"
    INDEX 01 01:01:07
  TRACK 60 AUDIO
    TITLE "4:cjc148_2610"
    INDEX 01 01:01:56
  TRACK 61 AUDIO
    TITLE "0:"
    INDEX 01 01:02:71
  TRACK 62 AUDIO
    TITLE "4:cjc148_2611"
    INDEX 01 01:03:43
  TRACK 63 AUDIO
    TITLE "0:"
    INDEX 01 01:05:32
  TRACK 64 AUDIO
    TITLE "4:cjc148_2612"
    INDEX 01 01:06:08
  TRACK 65 AUDIO
    TITLE "0:"
    INDEX 01 01:08:21
  TRACK 66 AUDIO
    TITLE "0:"
    INDEX 01 01:09:73
  TRACK 67 AUDIO
    TITLE "0:"
    INDEX 01 01:11:19
  TRACK 68 AUDIO
    TITLE "4:cjc148_2613"
    INDEX 01 01:12:03
  TRACK 69 AUDIO
    TITLE "0:"
    INDEX 01 01:15:21
  TRACK 70 AUDIO
    TITLE "4:cjc148_2614"
    INDEX 01 01:15:25
  TRACK 71 AUDIO
    TITLE "0:"
    INDEX 01 01:17:16
  TRACK 72 AUDIO
    TITLE "0:"
    INDEX 01 01:18:62
  TRACK 73 AUDIO
    TITLE "0:"
    INDEX 01 01:20:00
  TRACK 74 AUDIO
    TITLE "4:cjc148_2615"
    INDEX 01 01:20:49
  TRACK 75 AUDIO
    TITLE "0:"
    INDEX 01 01:22:13
  TRACK 76 AUDIO
    TITLE "4:cjc148_2616"
    INDEX 01 01:22:64
  TRACK 77 AUDIO
    TITLE "0:"
    INDEX 01 01:24:36
  TRACK 78 AUDIO
    TITLE "4:cjc148_2617"
    INDEX 01 01:25:08
  TRACK 79 AUDIO
    TITLE "0:"
    INDEX 01 01:26:54
  TRACK 80 AUDIO
    TITLE "4:cjc148_2618"
    INDEX 01 01:27:28
  TRACK 81 AUDIO
    TITLE "0:"
    INDEX 01 01:28:61
  TRACK 82 AUDIO
    TITLE "4:cjc148_2619"
    INDEX 01 01:29:27
  TRACK 83 AUDIO
    TITLE "0:"
    INDEX 01 01:30:62
  TRACK 84 AUDIO
    TITLE "4:cjc148_2620"
    INDEX 01 01:31:28
  TRACK 85 AUDIO
    TITLE "0:"
    INDEX 01 01:33:01
